<svg preserveAspectRatio="xMidYMid meet" data-bbox="16 226.5 969.5 248.71" viewBox="16 226.5 969.5 248.71" xmlns="http://www.w3.org/2000/svg" data-type="color" role="presentation" aria-hidden="true" aria-labelledby="svgcid--t2dm9x-48ctqy">
    <defs>
        <style>
            #comp-l1pbvhcw svg [data-color="1"] {
                fill: #F25C2E;
            }
        </style>
    </defs>
    <title id="svgcid--t2dm9x-48ctqy"></title>
    <g>
        <path d="M16 226.5v36.08h34.79v171.39H16v41.24h113.13v-41.24H94.34v-50.26H174c8.31 0 16.01-4.36 20.28-11.48l3.29-5.48a37.102 37.102 0 0 0 5.29-19.09v-85.08H985.5V226.5H16zm136.59 120.26H94.34v-84.18l58.9-.36 9.51 5.51.64 73.23-10.8 5.8z" fill="#e73e23" data-color="1"></path>
        <path d="M213.16 279.33h39.95v14.17h5.15s7.73-15.46 33.5-14.17c0 0 10.31 0 16.75 15.46v45.1h-29.79v-35.92c0-2.35-2.55-3.82-4.58-2.63l-17.64 10.33a12.913 12.913 0 0 0-6.39 11.14v42.85h15.46V385H208v-19.33h15.46V294.8h-10.31v-15.47z" fill="#e73e23" data-color="1"></path>
        <path fill="#e73e23" d="M376.39 385v-15.46h-14.18V294.8h14.18v-15.47h-50.26v14.18h10.31v76.03h-10.31V385h50.26z" data-color="1"></path>
        <path d="M400.01 279.33v14.17h10.31v76.03h-10.31V385h50.26v-15.46h-10.31v-59.28l15.46-15.46h10.31V385h29.64v-76.03l15.46-15.46h10.31V385h25.77v-95.36c-.02-.05-5.2-12.88-30.92-10.31-.08.05-23.63 13.68-24.46 14.16-.01.01-.02 0-.02-.01.04-.79.6-19.19-30.93-14.15l-1.04 1.04c-3.47 3.47-17.18 14.42-22.1 14.42h-2.64v-15.46h-34.79z" fill="#e73e23" data-color="1"></path>
        <path d="m692.52 279.33-12.86 8.18c-.82.52-1.32 1.42-1.32 2.4v39.35c0 4.51 2.97 8.51 7.31 9.74 1.62.46 3.54.79 5.79.87.88.03 1.74.17 2.6.36l37.7 8.38c4.19.93 7.17 4.65 7.17 8.94v9.94c0 3.98-3.22 7.2-7.2 7.2h-21.42a7.46 7.46 0 0 1-7.46-7.46v-14.18c0-1.57-1.27-2.84-2.84-2.84H679.9c-1.57 0-2.84 1.27-2.84 2.84v26.8s0 5.15 15.46 5.15h65.72s6.41 1.28 5.16-14.07c-.01-.07-.01-.14-.01-.21v-30.04c0-.58-.17-1.14-.5-1.61-2.19-3.18-12.48-14.45-48.56-14.7-3.91-.03-7.49-2.22-9.24-5.72a21.418 21.418 0 0 1-2.26-9.58v-11.43c0-1.57 1.27-2.84 2.84-2.84h29.11c1.57 0 2.84 1.27 2.84 2.84v8.49c0 1.57 1.27 2.84 2.84 2.84h20.09c1.57 0 2.84-1.27 2.84-2.84v-15.66c0-.56-.16-1.12-.48-1.58-1.49-2.17-6.41-8.39-14.76-9.53-.14-.02-.29-.03-.43-.03h-55.2" fill="#e73e23" data-color="1"></path>
        <path d="M657.73 329.45v-37.22c0-2.1-.72-4.14-2.04-5.77-2.15-2.65-6.15-6.13-12.81-7.05-.4-.06-.82-.08-1.22-.08h-59.35c-.33 0-.65-.02-.98-.05a9.17 9.17 0 0 0-.69-.05c-5.09-.15-9.24 4.07-9.24 9.16v85.79c0 3.47 1.96 6.64 5.06 8.2l3.31 1.65c1.27.64 2.68.97 4.1.97h63.05c3.47 0 6.64-1.96 8.2-5.07l1.65-3.31c.64-1.27.97-2.68.97-4.1v-13.16c0-5.06-4.1-9.16-9.16-9.16h-12.6c-5.06 0-9.16 4.1-9.16 9.16v6.16c0 5.06-4.1 9.16-9.16 9.16h-11.31c-5.06 0-9.16-4.1-9.16-9.16v-17.76c0-5.06 4.1-9.16 9.16-9.16h42.24c5.04.01 9.14-4.09 9.14-9.15zm-57.13-38.69.49-.4a9.144 9.144 0 0 1 5.72-2.01h11.61c2.08 0 4.1.71 5.72 2.01l.49.4a9.172 9.172 0 0 1 3.44 7.15v22.51c0 5.06-4.1 9.16-9.16 9.16h-12.6c-5.06 0-9.16-4.1-9.16-9.16v-22.51a9.213 9.213 0 0 1 3.45-7.15z" fill="#e73e23" data-color="1"></path>
        <path d="M790.37 278.56c6.44-.78 19.27-1.25 35.36 3.83 7.35 2.32 12.97 8.29 14.93 15.75 3.16 12.05 7.5 30.39 10.49 61.57a5.158 5.158 0 0 0 5.13 4.67h69.98c2.88 0 5.2-2.37 5.15-5.25-.03-1.97-.09-3.72-.16-3.65-.14.14-48.22-.04-64.24-.1a5.143 5.143 0 0 1-5.12-5.15v-2.6a5.15 5.15 0 0 1 5.15-5.15h59.28a5.15 5.15 0 0 0 5.15-5.15 5.15 5.15 0 0 0-5.15-5.15h-59.28a5.15 5.15 0 0 1-5.15-5.15v-7.73a5.15 5.15 0 0 1 5.15-5.15h85.05a5.15 5.15 0 0 1 5.15 5.15v5.35c0 9.52-1.97 18.93-5.8 27.65-1.84 4.18-4.06 9.12-6.61 14.55a24.8 24.8 0 0 1-22.46 14.3h-86.84c-2.61 0-4.81-1.95-5.12-4.55l-5.88-49.42c-.01-.1-.03-.21-.05-.31l-2.92-16.08c-1.4-7.71-7.35-9.95-15.03-11.52-5.02-1.03-10.71-1.83-15.25-1.62-2.95.13-5.43-2.19-5.43-5.14v-8.81c.01-2.63 1.94-4.83 4.52-5.14z" fill="#000000" data-color="2"></path>
        <path d="M930.19 406.26c0 8.897-7.213 16.11-16.11 16.11-8.897 0-16.11-7.213-16.11-16.11 0-8.897 7.213-16.11 16.11-16.11 8.897 0 16.11 7.213 16.11 16.11z" fill="#000000" data-color="2"></path>
        <path d="M867.04 406.26c0 8.897-7.213 16.11-16.11 16.11-8.897 0-16.11-7.213-16.11-16.11 0-8.897 7.213-16.11 16.11-16.11 8.897 0 16.11 7.213 16.11 16.11z" fill="#000000" data-color="2"></path>
        <path d="M628 394.86h13.04v43.62h22.7v13.14H628v-56.76z" fill="#000000" data-color="2"></path>
        <path d="M674.38 447.29c-4.3-4.02-6.44-9.3-6.44-15.86 0-6.56 2.14-11.81 6.41-15.75 4.27-3.94 9.56-5.91 15.86-5.91 6.3 0 11.58 1.97 15.82 5.91 4.24 3.94 6.37 9.19 6.37 15.75 0 6.56-2.11 11.85-6.33 15.86-4.22 4.02-9.48 6.02-15.79 6.02-6.3.01-11.6-2-15.9-6.02zm22.15-7.85c1.73-1.83 2.59-4.47 2.59-7.93s-.89-6.09-2.67-7.89c-1.78-1.81-3.89-2.71-6.33-2.71s-4.54.9-6.29 2.71-2.63 4.44-2.63 7.89.9 6.1 2.71 7.93 3.93 2.75 6.37 2.75c2.44-.01 4.53-.92 6.25-2.75z" fill="#000000" data-color="2"></path>
        <path d="M723.3 442.83c-3.76-4.07-5.64-9.28-5.64-15.63 0-6.35 1.88-11.58 5.64-15.67s8.35-6.14 13.77-6.14 9.57 2.01 12.47 6.02v-5.57h13.04v42.33c0 5.95-1.63 10.91-4.88 14.87-1.63 2.03-3.85 3.61-6.67 4.73-2.82 1.12-6.09 1.68-9.8 1.68-6.51 0-11.67-1.32-15.48-3.96-3.81-2.64-5.98-6.69-6.48-12.13h12.81c1.22 3.2 4.27 4.8 9.15 4.8 2.39 0 4.37-.8 5.95-2.4 1.58-1.6 2.36-4.13 2.36-7.59v-5.95c-3.15 4.47-7.37 6.71-12.66 6.71s-9.81-2.03-13.58-6.1zm23.42-7.93c1.88-1.83 2.82-4.42 2.82-7.78s-.94-5.94-2.82-7.74c-1.88-1.8-4.04-2.71-6.48-2.71s-4.6.92-6.48 2.74c-1.88 1.83-2.82 4.42-2.82 7.78s.94 5.94 2.82 7.74c1.88 1.81 4.04 2.71 6.48 2.71s4.6-.91 6.48-2.74z" fill="#000000" data-color="2"></path>
    </g>
</svg>